Patient4_TMGait_0pt6_02_right_18_EMG.mot
version=1
nRows=13
nColumns=33
inDegrees=no
endheader
time	1LAddLong	2LGlutMax	3LGlutMed	4LIliopsoas	5LSemiMemb	6LBicFemLong	7LRecFem	8LVastMed	9LVastLat	10LGasMed	11LTibAnt	12lTibPost	13LPeroneusLong	14LSol	15LExtDigLong	16LFlexDigLong	17RAddLong	18RGlutMax	19RGlutMed	20RIliopsoas	21RSemiMemb	22RBicFemLong	23RRecFem	24RVastMed	25RVastLat	26RGasMed	27RTibAnt	28RTibPost	29RPeroneusLong	30RSol	31RExtDigLong	32RFlexDigLong
21.52	0.048218	-0.041962	0.010376	-0.000305	-0.21408	-0.004272	-0.015869	0.022278	-0.040131	0.0354	-0.061188	-0.001526	0.55069	-0.1831	-0.1149	-0.011749	0.054321	-0.045319	-0.21332	0.068359	-0.072632	-0.021667	0.47348	0.31738	0.036926	-0.026093	0.62103	-0.01709	-0.41046	0.19165	-0.008545	0.005341
21.521	0.035095	-0.056	0.022278	0.013123	-0.1857	-0.32989	-0.02182	0.023804	-0.015869	0.3479	-0.015259	0.007324	0.38132	-0.083771	-0.014191	0.072937	0.058594	-0.06485	-0.13412	0.056915	-0.093384	-0.046387	0.71854	0.34943	0.023041	-0.013733	0.38574	-0.014038	-0.001984	0.18402	-0.007629	0.000153
21.522	0.037384	-0.032349	-0.027161	0.022583	0.12451	-0.02655	0.024719	0.014954	-0.016022	0.65521	0.009308	-0.042419	-0.061035	-0.10849	0.14481	-0.014038	0.047455	-0.001373	-0.18539	0.058136	-0.13092	-0.070343	0.77438	0.30472	0.039215	-0.011139	-0.36072	-0.017242	0.52933	0.28839	-0.006714	-0.002136
21.523	0.021057	-0.004578	0.089874	0.01297	0.29587	0.068512	0.041504	0.00412	0.00946	1.2001	0.006256	0.11231	0.04425	-0.13351	0.22049	-0.13138	0.014801	-0.10346	-0.19287	0.031281	-0.1445	-0.071564	0.68527	0.20264	0.056458	-0.017395	-0.45944	-0.00412	0.41946	0.13748	-0.00412	-0.000458
21.524	0.042419	-0.088654	0.074158	-0.004883	0.26428	0.019684	0.061798	0.008698	0.011139	1.736	0.035858	0.013275	0.10178	-0.42816	0.1294	0.18265	0.002899	-0.112	-0.22247	0.038452	-0.10422	-0.042114	0.67535	0.14633	0.048218	-0.016479	-0.17044	-0.011749	0.15549	0.077667	-0.004578	-0.004578
21.525	0.02594	-0.11551	0.007324	0.00061	0.14801	-0.021667	0.056305	-0.023651	0.023651	1.355	0.028687	-0.12665	-0.075836	-0.63934	0.074005	0.046234	0.011597	-0.14008	-0.26352	0.039978	0.062561	-0.058746	0.68131	0.16296	0.059052	-0.018311	0.073853	-0.009918	-0.070343	-0.002441	-0.009613	-0.005951
21.526	0.016632	-0.098877	0.007172	0.014038	0.069733	-0.16708	0.048523	0.021973	0.020294	0.88592	0.033112	0.054779	-0.079956	-0.48004	0.032501	-0.18936	0.011139	-0.10956	-0.21225	0.062408	0.023499	-0.039673	0.58319	0.08316	0.045166	-0.01297	0.32288	-0.010681	-0.089417	-0.077515	-0.005798	-0.010834
21.527	0.015411	-0.069733	0.025482	0.017395	0.057526	-0.14908	-0.016327	0.034943	0.007477	0.39093	0.038757	0.057373	0.088806	-0.37064	-0.028076	-0.042419	0.058136	-0.14999	-0.21469	0.034485	-0.13748	0.058899	0.55634	0.005341	0.045319	-0.016174	0.40771	-0.012665	0.055542	-0.10559	-0.005493	-0.007019
21.528	0.015564	-0.045166	0.01358	0.03418	0.06134	-0.032349	-0.10956	0.039215	0.059357	-0.83374	0.032196	-0.021057	0.15579	-0.037689	0.064392	0.10071	0.091553	-0.12039	-0.27237	0.014954	-0.19516	0.090027	0.38895	-0.078888	0.041199	-0.00885	0.42572	-0.006409	-0.01297	-0.1709	-0.00473	-0.00824
21.529	0.015564	-0.051727	-0.043488	0.022583	0.053864	0.020905	-0.084229	0.033875	0.010529	-1.1084	0.001526	-0.006561	0.4216	0.32822	0.13306	0.02594	0.039368	-0.14389	-0.36026	0.032806	-0.14618	0.10437	0.30899	-0.098419	0.029602	-0.001984	-0.076752	-0.006409	-0.090332	-0.21896	-0.003204	-0.015106
21.53	0.00351	0.013733	-0.0354	0.007782	0.043488	0.11414	0.03952	0.037384	-0.12756	-0.44311	-0.007324	-0.043793	0.35614	0.33905	-0.038757	0.004425	0.003357	-0.15167	-0.39932	0.061951	-0.1294	0.059204	0.30899	-0.14358	0.005341	-0.004578	-0.39429	-0.000458	-0.35965	-0.24338	-0.001831	-0.007324
21.531	-0.001373	0.016174	-0.014801	-0.002441	0.010376	0.075684	0.037079	0.031433	-0.16693	-0.17136	0.035248	0.00412	-0.41718	0.31738	-0.096893	-0.002747	-0.037384	-0.13657	-0.27588	0.083313	-0.13321	0.022278	0.18677	-0.20371	-0.007019	-0.010681	-0.26398	-0.006866	-0.40573	-0.23178	0.001526	-0.012512
21.532	-0.001984	0.005188	-0.026093	-0.006714	-0.00824	0.02182	-0.000916	0.016937	-0.086975	-0.52811	0.068665	-0.019684	-0.95123	0.058136	0.01358	-0.005646	-0.056763	-0.11307	-0.27115	0.033875	-0.13825	0.014038	0.016174	-0.17578	-0.004425	-0.003357	-0.26291	0.000305	-0.24612	-0.23651	-0.00351	-0.007019
